<svg xmlns="http://www.w3.org/2000/svg" width="1600" height="900" viewBox="0 0 1600 900" role="img" aria-label="Projected Python loop prompt in a community college computer lab">
  <rect width="1600" height="900" fill="#E8DCC8"/>
  <rect x="0" y="650" width="1600" height="250" fill="#D8C99F"/>
  <rect x="115" y="70" width="1370" height="555" fill="#F7F1E3" stroke="#1E1E1A" stroke-width="5"/>
  <rect x="150" y="105" width="650" height="460" fill="#2A332F" stroke="#1E1E1A" stroke-width="4"/>
  <rect x="150" y="105" width="650" height="60" fill="#3A6B5E"/>
  <text x="185" y="144" fill="#EFE8D2" font-family="Inter, Arial, sans-serif" font-size="28" font-weight="700">projected_warmup.py</text>
  <text x="190" y="230" fill="#EFE8D2" font-family="Menlo, Consolas, monospace" font-size="34">total = 0</text>
  <text x="190" y="295" fill="#EFE8D2" font-family="Menlo, Consolas, monospace" font-size="34">for i in range(5):</text>
  <text x="235" y="360" fill="#EFE8D2" font-family="Menlo, Consolas, monospace" font-size="34">total = total + i</text>
  <text x="190" y="425" fill="#EFE8D2" font-family="Menlo, Consolas, monospace" font-size="34">print(total)</text>
  <rect x="860" y="120" width="540" height="155" fill="#FFF9EB" stroke="#1E1E1A" stroke-width="3"/>
  <text x="900" y="168" fill="#3A6B5E" font-family="Inter, Arial, sans-serif" font-size="26" font-weight="800">Opening prompt</text>
  <text x="900" y="220" fill="#1E1E1A" font-family="Inter, Arial, sans-serif" font-size="32" font-weight="800">Predict first. Do not run yet.</text>
  <rect x="860" y="315" width="540" height="210" fill="#EFE8D2" stroke="#1E1E1A" stroke-width="3"/>
  <text x="900" y="365" fill="#1E1E1A" font-family="Inter, Arial, sans-serif" font-size="27" font-weight="700">Student slips on desks</text>
  <rect x="900" y="400" width="125" height="70" fill="#F7F1E3" stroke="#B87D6B" stroke-width="3"/>
  <rect x="1045" y="400" width="125" height="70" fill="#F7F1E3" stroke="#B87D6B" stroke-width="3"/>
  <rect x="1190" y="400" width="125" height="70" fill="#F7F1E3" stroke="#B87D6B" stroke-width="3"/>
  <text x="925" y="444" fill="#1E1E1A" font-family="Inter, Arial, sans-serif" font-size="22">10?</text>
  <text x="1070" y="444" fill="#1E1E1A" font-family="Inter, Arial, sans-serif" font-size="22">15?</text>
  <text x="1215" y="444" fill="#1E1E1A" font-family="Inter, Arial, sans-serif" font-size="22">?</text>
  <rect x="180" y="705" width="190" height="95" fill="#F2EBD9" stroke="#1E1E1A" stroke-width="3"/>
  <rect x="480" y="705" width="190" height="95" fill="#F2EBD9" stroke="#1E1E1A" stroke-width="3"/>
  <rect x="780" y="705" width="190" height="95" fill="#F2EBD9" stroke="#1E1E1A" stroke-width="3"/>
  <rect x="1080" y="705" width="190" height="95" fill="#F2EBD9" stroke="#1E1E1A" stroke-width="3"/>
  <text x="210" y="763" fill="#3A6B5E" font-family="Inter, Arial, sans-serif" font-size="24" font-weight="800">Student A</text>
  <text x="510" y="763" fill="#3A6B5E" font-family="Inter, Arial, sans-serif" font-size="24" font-weight="800">Student B</text>
  <text x="810" y="763" fill="#3A6B5E" font-family="Inter, Arial, sans-serif" font-size="24" font-weight="800">Student C</text>
  <text x="1110" y="763" fill="#3A6B5E" font-family="Inter, Arial, sans-serif" font-size="24" font-weight="800">Student D</text>
</svg>
